<svg xmlns="http://www.w3.org/2000/svg" viewBox="0 0 940 335.01"><path d="M103.69,334.87q-42-1.67-68.84-23a137,137,0,0,1-14.3-14.31,89.17,89.17,0,0,1-15.5-27.89C-5.09,239.29.13,199.44,20,155.71c17-37.44,43.21-74.58,89-126C115.66,22.13,135.73,0,135.86,0s-1.05,1.89-2.42,4.2c-11.9,19.92-22.07,43.39-27.62,63.71C96.92,100.5,98,128.48,109,150.17c7.57,14.94,20.55,27.89,35.15,35,25.56,12.53,63,13.56,108.67,3,3.15-.72,159-42.11,346.44-92S940,5.66,940,5.69s-435.37,186.37-661.41,283c-35.8,15.3-45.37,19.17-62.2,25.08C173.37,328.9,134.84,336.11,103.69,334.87Z"/></svg>